<svg id="Capa_1" enable-background="new 0 0 512 512" height="512" viewBox="0 0 512 512" width="512" xmlns="http://www.w3.org/2000/svg"><g><path d="m10 478.433h202.603c5.523 0 10-4.477 10-10s-4.477-10-10-10h-192.603v-244.184h59.952.004 100.888v18.021c.018 5.358.56 10.752 1.688 15.994h-105.553c-10.112 0-18.339 8.227-18.339 18.339v142.415c0 10.112 8.227 18.339 18.339 18.339h360.51c10.112 0 18.339-8.227 18.339-18.339v-142.415c0-10.112-8.227-18.339-18.339-18.339h-106.807c1.126-5.235 1.69-10.635 1.69-15.99v-18.025h99.672.004 59.952v244.184h-191.152c-5.522 0-10 4.477-10 10s4.478 10 10 10h201.152c5.522 0 10-4.477 10-10v-264.184c0-.099-.012-.194-.015-.292-.003-.095.004-.19-.002-.286-.061-1.049-1.645-26.076-15.427-59.344-12.652-30.539-38.49-74.244-89.736-109.034-1.657-1.125-3.614-1.727-5.617-1.727h-58.375c-4.381 0-8.247 2.854-9.546 7.038-.642 2.069-.578 4.225.084 6.177h-154.728c.662-1.949.727-4.103.087-6.17-1.296-4.188-5.169-7.044-9.553-7.044h-58.375c-2.003 0-3.959.602-5.617 1.727-51.246 34.79-77.084 78.495-89.736 109.034-13.783 33.267-15.367 58.295-15.427 59.343-.005.095.001.19-.002.285-.003.098-.015.194-.015.293v264.184c0 5.523 4.477 10 10 10zm345.436-411.651c11.569 10.541 26.681 26.294 39.36 46.123h-277.592c12.679-19.829 27.791-35.583 39.359-46.123zm-154.586 165.728c0-.08-.006-.16-.006-.24v-45.173c0-5.837 4.75-10.586 10.587-10.586h90.355c5.762 0 10.583 4.821 10.583 10.583v45.176c0 30.35-25.416 55.769-55.761 55.769-30.669-.001-55.63-24.889-55.758-55.529zm-122.21 174.847v-59.023h357.188v59.023zm357.188-139.093v60.071h-357.188v-60.071h111.314c12.83 23.666 37.896 39.774 66.655 39.774s53.824-16.108 66.654-39.774zm-103.456-74.015v-7.153c0-8.433-3.431-16.081-8.97-21.619-5.539-5.539-13.186-8.97-21.619-8.97h-90.352c-16.866 0-30.587 13.721-30.587 30.586v.003 7.153h-90.068c2.157-20.932 6.309-42.216 15.349-61.344h299.75c9.033 19.117 13.192 40.417 15.347 61.344zm65.724-140.682c45.18 31.5 68.237 70.362 79.662 97.644 7.525 17.97 11.135 33.405 12.829 43.038h-49.244c-2.169-23.035-6.75-46.729-16.426-67.899-12.639-27.654-31.956-52.204-54.19-72.782h27.369zm-284.192 0h27.37c-23.532 21.779-44.429 48.355-56.545 78.263-8.007 19.764-12.078 41.255-14.07 62.418h-49.244c4.516-25.534 22.642-91.999 92.489-140.681z" fill="white"/><path d="m246 249.15v13.219c0 5.523 4.477 10 10 10 5.522 0 10-4.477 10-10v-13.219c11.864-4.146 20.401-15.443 20.401-28.704 0-16.763-13.638-30.401-30.401-30.401s-30.401 13.638-30.401 30.401c0 13.261 8.537 24.559 20.401 28.704zm10-39.105c5.735 0 10.401 4.666 10.401 10.401s-4.666 10.401-10.401 10.401-10.401-4.666-10.401-10.401 4.666-10.401 10.401-10.401z" fill="white"/><path d="m253.41 477.67c3.932 1.638 8.62.518 11.397-2.71 2.725-3.168 3.177-7.817 1.124-11.454-4.586-8.124-17.188-5.702-18.587 3.458-.686 4.486 1.892 8.966 6.066 10.706z" fill="white"/></g></svg>